<svg class="svg-inline--fa fa-star fa-w-18" aria-hidden="true" data-icon="star" data-prefix="fad" focusable="false" role="img" viewBox="0 0 139.13 159.18" xmlns="http://www.w3.org/2000/svg"><g class="fa-group" fill="#fff"><path class="fa-primary" d="m79.5,145.71c-.26.8-.55,1.58-.76,2.39-1.57,5.87-5.48,9.34-11.25,10.74-3.32.81-6.54.15-9.6-1.36-6.42-3.16-12.87-6.26-19.28-9.44-5.67-2.81-11.31-5.67-16.95-8.53-4.6-2.33-9.22-4.65-13.79-7.06-4.25-2.24-6.85-5.7-7.65-10.52-.71-4.32.3-8.18,2.68-11.76,5.45-8.22,10.92-16.43,16.36-24.65,3.17-4.79,6.21-9.7,10.46-13.65,3.24-3.01,6.78-5.61,10.79-7.55,4.22-2.04,8.66-3.36,13.23-4.26,1-.2,2.04-.26,3.06-.28,8.86-.1,17.73-.25,26.6-.23,5.26.01,10.42.92,15.44,2.53,3.3,1.06,6.25,2.83,9.19,4.64,7.21,4.43,12.37,10.79,17.09,17.62,2.54,3.67,5.19,7.26,7.81,10.87,2.01,2.76,4.01,5.53,5.19,8.78,1.5,4.16,1.45,8.32-.87,12.11-2.05,3.34-4.43,6.5-6.84,9.6-4.2,5.41-8.64,10.63-12.79,16.08-2.98,3.92-6.62,6.57-11.53,7.28-1.21.17-2.47.03-3.7,0-.73-.02-1.47-.12-2.2-.19-.35-.27-.67-.65-1.07-.78-3.09-1.01-5.23-3.2-6.89-5.83-1.5-2.38-2.83-4.93-2.52-7.9.16-1.55.45-3.09.79-4.62.4-1.8.42-1.79-1.37-2.21-2.14-.49-4.32-.86-6.37-1.61-5.5-2.01-10.72-4.67-15.48-8.09-2.03-1.46-3.6-3.55-5.58-5.11-1.66-1.31-2.25-2.86-2.09-4.85.05-.62.04-1.24.01-1.87-.1-2.85.08-5.76-.39-8.55-1.3-7.8-9.94-9.71-15.18-6.37-2.98,1.9-4.28,4.79-4.39,8.17-.15,4.56-.04,9.13-.16,13.69-.04,1.41.47,2.19,1.7,2.8,7.54,3.72,15.08,7.45,22.57,11.26,3.17,1.61,6.36,3.23,9.32,5.18,3.29,2.18,5.39,5.36,6.03,9.34.22,1.37.26,2.77.38,4.16Zm6.25-56.06c-6.91-.6-13.76,5.87-13.72,13.42.04,7.28,5.75,13.46,13.53,13.68,7.36.21,13.85-6.32,13.8-13.68-.06-8.05-7.48-14.11-13.61-13.43Z"/><path class="fa-primary" d="m69.57,0c14.23.27,23.25,10.47,24.57,22.25,1.7,15.26-11.6,27.35-24,27.27-14.63-.1-24.94-11.33-25.46-24.12C44.13,12,55.46-.16,69.57,0Z"/><path class="fa-secondary" d="m79.5,145.71c-.12-1.39-.17-2.79-.38-4.16-.64-3.99-2.74-7.16-6.03-9.34-2.96-1.96-6.15-3.57-9.32-5.18-7.5-3.81-15.03-7.54-22.57-11.26-1.24-.61-1.74-1.39-1.7-2.8.12-4.56,0-9.13.16-13.69.11-3.38,1.41-6.27,4.39-8.17,5.24-3.34,13.88-1.44,15.18,6.37.46,2.79.28,5.7.39,8.55.02.62.04,1.25-.01,1.87-.16,1.99.43,3.54,2.09,4.85,1.97,1.56,3.54,3.65,5.58,5.11,4.76,3.42,9.98,6.07,15.48,8.09,2.05.75,4.24,1.12,6.37,1.61,1.79.41,1.77.4,1.37,2.21-.34,1.52-.63,3.07-.79,4.62-.31,2.98,1.02,5.53,2.52,7.9,1.66,2.62,3.8,4.81,6.89,5.83.4.13.71.51,1.07.78-1.75-.08-3.53.02-5.24-.27-5.16-.88-10.29-1.92-15.44-2.9Z" opacity=".4"/><path class="fa-secondary" d="m85.75,89.65c6.14-.68,13.56,5.38,13.61,13.43.05,7.35-6.45,13.89-13.8,13.68-7.78-.22-13.49-6.41-13.53-13.68-.04-7.55,6.81-14.03,13.72-13.42Z" opacity=".4"/></g></svg>