<svg xmlns="http://www.w3.org/2000/svg" width="310.93" height="31.06" viewBox="0 0 310.93 31.06"><title>eduardo-santos</title><path d="M26.15,23.26A5.17,5.17,0,0,0,30,24.84a7.78,7.78,0,0,0,2.57-.41,12.69,12.69,0,0,0,2.51-1.28l1.4,2a10,10,0,0,1-3,1.62,10.57,10.57,0,0,1-3.44.58,7.92,7.92,0,0,1-6.39-2.68,10.72,10.72,0,0,1-2.29-7.18,12.38,12.38,0,0,1,1-5.1,8.26,8.26,0,0,1,2.88-3.53A7.56,7.56,0,0,1,29.59,7.6a7,7,0,0,1,5.67,2.5,10.38,10.38,0,0,1,2.07,6.82c0,.55,0,1.09-.07,1.62H24.51A6.91,6.91,0,0,0,26.15,23.26Zm-.09-11.61a7.49,7.49,0,0,0-1.55,4.59h9.87a7.41,7.41,0,0,0-1.3-4.58,4.19,4.19,0,0,0-3.46-1.58A4.49,4.49,0,0,0,26.06,11.65ZM56.1.36V27H53.44l-.29-2.48a7.1,7.1,0,0,1-2.41,2.16,6.29,6.29,0,0,1-3,.72,6.15,6.15,0,0,1-5.41-2.63,12.48,12.48,0,0,1-1.82-7.23,13.64,13.64,0,0,1,.9-5.1A8.19,8.19,0,0,1,44,8.87,6.32,6.32,0,0,1,48,7.6a6.5,6.5,0,0,1,5.12,2.26V0Zm-11,11.56a9.92,9.92,0,0,0-1.28,5.58A10.7,10.7,0,0,0,45,23.06,3.77,3.77,0,0,0,48.4,25c1.8,0,3.35-1,4.68-3V12.49a5.69,5.69,0,0,0-1.91-1.82A4.86,4.86,0,0,0,48.75,10,4.16,4.16,0,0,0,45.1,11.92Zm19.22,9.54a3.88,3.88,0,0,0,.78,2.68,3.14,3.14,0,0,0,2.43.84,5.43,5.43,0,0,0,2.91-.86A6.89,6.89,0,0,0,72.67,22V8h3V27H73.11l-.26-2.55a7.88,7.88,0,0,1-6.08,2.95,5.43,5.43,0,0,1-4.09-1.44,5.75,5.75,0,0,1-1.38-4.14V8h3Zm30.55,3a2.12,2.12,0,0,0,1.18.78L95.3,27.4a3.74,3.74,0,0,1-3.46-2.7,6.61,6.61,0,0,1-2.54,2,8.32,8.32,0,0,1-3.4.68,6.2,6.2,0,0,1-4.48-1.58,5.66,5.66,0,0,1-1.64-4.25A5.13,5.13,0,0,1,82.07,17a11.42,11.42,0,0,1,6.57-1.59h2.81V13.9A3.42,3.42,0,0,0,90.29,11,5.38,5.38,0,0,0,87,10.12a15.13,15.13,0,0,0-4.94,1l-.82-2.31A18.68,18.68,0,0,1,87.41,7.6a7.69,7.69,0,0,1,5.28,1.62,5.72,5.72,0,0,1,1.82,4.5v9.1A2.93,2.93,0,0,0,94.87,24.46Zm-5.53-.09a6.14,6.14,0,0,0,2.11-2V17.53H88.71a7.35,7.35,0,0,0-4.36,1A3.49,3.49,0,0,0,83,21.49q0,3.6,3.64,3.6A5.39,5.39,0,0,0,89.34,24.37ZM116,8l-.43,6.45H113.1V10.37h-.18q-4.4,0-6.23,6.26v8h3.85V27h-9.86V24.62h3V10.33h-3V8h5.25l.58,4.5a9.84,9.84,0,0,1,2.75-3.67,6.46,6.46,0,0,1,4-1.22A10.88,10.88,0,0,1,116,8ZM134.5.36V27h-2.67l-.28-2.48a7,7,0,0,1-2.42,2.16,6.73,6.73,0,0,1-8.37-1.91A12.55,12.55,0,0,1,119,17.5a13.64,13.64,0,0,1,.9-5.1,8.11,8.11,0,0,1,2.57-3.53,6.32,6.32,0,0,1,3.94-1.27,6.47,6.47,0,0,1,5.11,2.26V0Zm-11,11.56a9.92,9.92,0,0,0-1.28,5.58,10.7,10.7,0,0,0,1.17,5.56,3.77,3.77,0,0,0,3.4,1.89q2.7,0,4.68-3V12.49a5.58,5.58,0,0,0-1.9-1.82,4.86,4.86,0,0,0-2.42-.63A4.16,4.16,0,0,0,123.5,11.92ZM153,10.24a11.26,11.26,0,0,1,2.11,7.22,11.24,11.24,0,0,1-2.14,7.18,8.14,8.14,0,0,1-12.08.07,11.18,11.18,0,0,1-2.12-7.21,11.25,11.25,0,0,1,2.14-7.2A8.18,8.18,0,0,1,153,10.24Zm-9.73,1.68A10.12,10.12,0,0,0,142,17.5a10.15,10.15,0,0,0,1.21,5.56,4.65,4.65,0,0,0,7.38,0,10.33,10.33,0,0,0,1.2-5.6,10.22,10.22,0,0,0-1.2-5.56,4.62,4.62,0,0,0-7.36,0Zm14.07,6.51V15.84h14.4v2.59Zm27.5,5.62a2.53,2.53,0,0,0,1.26-2.2,3.15,3.15,0,0,0-.33-1.53,2.94,2.94,0,0,0-1.29-1.08,16.42,16.42,0,0,0-3-1,14.2,14.2,0,0,1-4.89-2A4,4,0,0,1,175,12.78,4.41,4.41,0,0,1,177,9a8.81,8.81,0,0,1,5.22-1.4,11.7,11.7,0,0,1,6.92,2.08l-1.37,2.09a10.14,10.14,0,0,0-2.49-1.28,9.06,9.06,0,0,0-3-.45q-4.11,0-4.11,2.49a2.12,2.12,0,0,0,.45,1.4,3.71,3.71,0,0,0,1.48,1c.68.27,1.71.6,3.08,1A12.16,12.16,0,0,1,187.8,18a4.59,4.59,0,0,1,1.53,3.73A4.67,4.67,0,0,1,187,26a10.74,10.74,0,0,1-5.65,1.4A10.9,10.9,0,0,1,174,24.8l1.69-2a9.32,9.32,0,0,0,2.63,1.5,8.73,8.73,0,0,0,3.1.56A6.18,6.18,0,0,0,184.8,24.05Zm23.66.41a2.15,2.15,0,0,0,1.19.78l-.75,2.16a3.74,3.74,0,0,1-3.46-2.7,6.61,6.61,0,0,1-2.54,2,8.32,8.32,0,0,1-3.4.68A6.18,6.18,0,0,1,195,25.78a5.66,5.66,0,0,1-1.64-4.25,5.13,5.13,0,0,1,2.29-4.5,11.42,11.42,0,0,1,6.57-1.59H205V13.9a3.41,3.41,0,0,0-1.15-2.9,5.42,5.42,0,0,0-3.35-.88,15.08,15.08,0,0,0-4.93,1l-.83-2.31A18.78,18.78,0,0,1,201,7.6a7.7,7.7,0,0,1,5.28,1.62,5.72,5.72,0,0,1,1.81,4.5v9.1A2.93,2.93,0,0,0,208.46,24.46Zm-5.52-.09a6,6,0,0,0,2.1-2V17.53h-2.73a7.35,7.35,0,0,0-4.36,1,3.47,3.47,0,0,0-1.33,2.95q0,3.6,3.64,3.6A5.39,5.39,0,0,0,202.94,24.37ZM214.1,8h2.59l.25,2.67a7.65,7.65,0,0,1,2.83-2.25,7.91,7.91,0,0,1,3.43-.81c3.56,0,5.33,1.87,5.33,5.61V27h-3V15.44a16.55,16.55,0,0,0-.24-3.24,2.72,2.72,0,0,0-.91-1.65,3.37,3.37,0,0,0-2.09-.54,5.11,5.11,0,0,0-2.92.93,8.33,8.33,0,0,0-2.23,2.24V27h-3Zm32.32,19a10.88,10.88,0,0,1-2.75.36A6.59,6.59,0,0,1,239,25.79a5.32,5.32,0,0,1-1.69-4.12V10.37h-4.36V8h4.36V3.71l3-.36V8h6.59l-.4,2.38h-6.19V21.64a3.13,3.13,0,0,0,.86,2.41,4,4,0,0,0,2.78.79,7.63,7.63,0,0,0,3.63-.9l1.19,2A7.74,7.74,0,0,1,246.42,27Zm20.14-16.76a11.32,11.32,0,0,1,2.11,7.22,11.25,11.25,0,0,1-2.15,7.18,8.13,8.13,0,0,1-12.07.07,11.18,11.18,0,0,1-2.13-7.21,11.3,11.3,0,0,1,2.14-7.2,8.19,8.19,0,0,1,12.1-.06Zm-9.74,1.68a10.22,10.22,0,0,0-1.22,5.58,10.15,10.15,0,0,0,1.21,5.56,4.65,4.65,0,0,0,7.38,0,10.33,10.33,0,0,0,1.2-5.6,10.22,10.22,0,0,0-1.2-5.56,4.63,4.63,0,0,0-7.37,0Zm26,12.13a2.53,2.53,0,0,0,1.26-2.2,3.16,3.16,0,0,0-.32-1.53,3,3,0,0,0-1.3-1.08,16,16,0,0,0-2.95-1,14.12,14.12,0,0,1-4.89-2A4,4,0,0,1,273,12.78,4.41,4.41,0,0,1,275,9a8.81,8.81,0,0,1,5.22-1.4,11.65,11.65,0,0,1,6.91,2.08l-1.36,2.09a10.32,10.32,0,0,0-2.49-1.28,9.08,9.08,0,0,0-3-.45q-4.09,0-4.1,2.49a2.12,2.12,0,0,0,.45,1.4,3.71,3.71,0,0,0,1.48,1c.68.27,1.71.6,3.07,1A12.14,12.14,0,0,1,285.8,18a4.59,4.59,0,0,1,1.53,3.73A4.67,4.67,0,0,1,285,26a10.75,10.75,0,0,1-5.66,1.4A10.9,10.9,0,0,1,272,24.8l1.69-2a9.19,9.19,0,0,0,2.63,1.5,8.68,8.68,0,0,0,3.09.56A6.18,6.18,0,0,0,282.79,24.05Z" fill="#6d6e71"/><path d="M20.64,26.91l-2.5,3.93L0,19.56V15L18.24,3.68l2.41,3.75L3.8,17.27ZM297.8,13.54l-1.47-.68-5,10.46,1.48.69Zm9.33,3.93-16.85,9.84,2.41,3.75,18.24-11.34V15.18L292.79,3.9l-2.5,3.93Z" fill="#414042"/></svg>